<svg xmlns="http://www.w3.org/2000/svg" xmlns:xlink="http://www.w3.org/1999/xlink" width="500" zoomAndPan="magnify" viewBox="0 0 375 374.999991" height="500" preserveAspectRatio="xMidYMid meet" version="1.0"><defs><clipPath id="ff5276665f"><path d="M 89 64 L 272 64 L 272 318.488281 L 89 318.488281 Z M 89 64 " clip-rule="nonzero"/></clipPath></defs><g clip-path="url(#ff5276665f)"><path fill="#eabd04" d="M 271.152344 104.667969 C 265.578125 57.234375 193.351562 56.738281 163.089844 79.15625 C 141.445312 95.167969 131.671875 116.042969 127.863281 126.644531 C 123.777344 123.441406 118.640625 121.5625 113.117188 121.5625 C 99.867188 121.5625 89.042969 132.332031 89.042969 145.640625 C 89.042969 158.890625 99.8125 169.714844 113.117188 169.714844 C 122.617188 169.714844 130.898438 164.136719 134.765625 156.128906 C 134.875 155.855469 135.039062 155.578125 135.152344 155.300781 C 135.921875 153.589844 136.476562 151.769531 136.808594 149.890625 C 141.777344 134.816406 156.796875 97.875 187.996094 86.664062 C 228.25 72.199219 267.675781 97.875 245.644531 130.621094 C 228.855469 155.632812 202.242188 165.960938 190.480469 169.492188 C 187 170.542969 184.570312 173.746094 184.460938 177.390625 L 184.460938 177.664062 C 184.460938 182.082031 187.882812 185.78125 192.300781 186.113281 C 206.605469 187.109375 236.089844 191.855469 248.902344 213.226562 C 266.183594 241.996094 217.425781 260.105469 217.425781 260.105469 L 217.316406 260.824219 C 215.992188 228.523438 199.09375 190.753906 135.757812 171.09375 C 135.757812 171.09375 109.199219 256.296875 201.578125 280.648438 L 205.332031 318.253906 C 205.332031 318.253906 214.445312 300.195312 216.820312 276.230469 C 223.777344 275.570312 252.875 270.765625 267.953125 238.183594 C 285.953125 199.199219 226.039062 174.296875 226.039062 174.296875 C 226.039062 174.296875 276.730469 152.707031 271.152344 104.667969 Z M 113.117188 153.921875 C 108.535156 153.921875 104.835938 150.222656 104.835938 145.640625 C 104.835938 141.054688 108.535156 137.355469 113.117188 137.355469 C 117.703125 137.355469 121.402344 141.054688 121.402344 145.640625 C 121.402344 150.222656 117.703125 153.921875 113.117188 153.921875 Z M 150.226562 192.023438 C 195.007812 207.816406 200.859375 260.050781 200.859375 260.050781 C 146.082031 248.84375 150.226562 192.023438 150.226562 192.023438 Z M 150.226562 192.023438 " fill-opacity="1" fill-rule="nonzero"/></g></svg>