<svg xmlns="http://www.w3.org/2000/svg" xmlns:xlink="http://www.w3.org/1999/xlink" width="500" zoomAndPan="magnify" viewBox="0 0 375 374.999991" height="500" preserveAspectRatio="xMidYMid meet" version="1.0"><defs><g/></defs><g fill="#000000" fill-opacity="1"><g transform="translate(99.661806, 196.110294)"><g><path d="M 1.40625 -21.4375 C 1.40625 -22.082031 1.328125 -22.703125 1.171875 -23.296875 C 1.015625 -23.898438 0.796875 -24.332031 0.515625 -24.59375 L 12.515625 -24.59375 C 13.378906 -24.59375 14.226562 -24.457031 15.0625 -24.1875 C 15.894531 -23.914062 16.640625 -23.515625 17.296875 -22.984375 C 17.960938 -22.460938 18.488281 -21.820312 18.875 -21.0625 C 19.269531 -20.300781 19.46875 -19.4375 19.46875 -18.46875 C 19.46875 -17.21875 19.125 -16.109375 18.4375 -15.140625 C 17.75 -14.179688 16.84375 -13.519531 15.71875 -13.15625 C 16.28125 -13.15625 16.859375 -13.046875 17.453125 -12.828125 C 18.046875 -12.617188 18.601562 -12.273438 19.125 -11.796875 C 19.644531 -11.316406 20.066406 -10.695312 20.390625 -9.9375 C 20.710938 -9.175781 20.875 -8.257812 20.875 -7.1875 C 20.875 -5.945312 20.539062 -4.773438 19.875 -3.671875 C 19.21875 -2.578125 18.203125 -1.691406 16.828125 -1.015625 C 15.460938 -0.335938 13.734375 0 11.640625 0 L 0.515625 0 C 0.796875 -0.25 1.015625 -0.679688 1.171875 -1.296875 C 1.328125 -1.910156 1.40625 -2.53125 1.40625 -3.15625 Z M 11.515625 -10.65625 L 7.140625 -10.65625 L 7.140625 -4.796875 L 11.515625 -4.796875 C 12.773438 -4.796875 13.691406 -5.070312 14.265625 -5.625 C 14.847656 -6.1875 15.140625 -6.882812 15.140625 -7.71875 C 15.140625 -8.570312 14.847656 -9.273438 14.265625 -9.828125 C 13.691406 -10.378906 12.773438 -10.65625 11.515625 -10.65625 Z M 7.140625 -19.796875 L 7.140625 -15.21875 L 11.21875 -15.21875 C 11.914062 -15.21875 12.492188 -15.441406 12.953125 -15.890625 C 13.421875 -16.335938 13.65625 -16.875 13.65625 -17.5 C 13.65625 -18.132812 13.421875 -18.675781 12.953125 -19.125 C 12.492188 -19.570312 11.914062 -19.796875 11.21875 -19.796875 Z M 7.140625 -19.796875 "/></g></g></g><g fill="#000000" fill-opacity="1"><g transform="translate(121.036599, 196.110294)"><g><path d="M 13.078125 0.375 C 11.222656 0.375 9.546875 0.046875 8.046875 -0.609375 C 6.554688 -1.273438 5.273438 -2.1875 4.203125 -3.34375 C 3.128906 -4.507812 2.304688 -5.859375 1.734375 -7.390625 C 1.171875 -8.921875 0.890625 -10.5625 0.890625 -12.3125 C 0.890625 -14.0625 1.171875 -15.695312 1.734375 -17.21875 C 2.304688 -18.75 3.128906 -20.097656 4.203125 -21.265625 C 5.273438 -22.429688 6.554688 -23.335938 8.046875 -23.984375 C 9.546875 -24.640625 11.222656 -24.96875 13.078125 -24.96875 C 14.890625 -24.96875 16.5625 -24.710938 18.09375 -24.203125 C 19.625 -23.703125 20.878906 -22.90625 21.859375 -21.8125 C 21.640625 -21.289062 21.429688 -20.75 21.234375 -20.1875 C 21.046875 -19.625 20.875 -19.101562 20.71875 -18.625 C 20.5625 -18.15625 20.4375 -17.769531 20.34375 -17.46875 C 20.25 -17.175781 20.203125 -17.03125 20.203125 -17.03125 C 20.203125 -17.03125 20.085938 -17.1875 19.859375 -17.5 C 19.628906 -17.8125 19.265625 -18.164062 18.765625 -18.5625 C 18.265625 -18.96875 17.625 -19.328125 16.84375 -19.640625 C 16.0625 -19.953125 15.117188 -20.109375 14.015625 -20.109375 C 12.703125 -20.109375 11.484375 -19.816406 10.359375 -19.234375 C 9.242188 -18.660156 8.34375 -17.796875 7.65625 -16.640625 C 6.96875 -15.484375 6.625 -14.03125 6.625 -12.28125 C 6.625 -11.53125 6.691406 -10.835938 6.828125 -10.203125 C 6.960938 -9.566406 7.160156 -8.984375 7.421875 -8.453125 C 7.328125 -9.878906 7.550781 -11.164062 8.09375 -12.3125 C 8.644531 -13.46875 9.429688 -14.382812 10.453125 -15.0625 C 11.484375 -15.738281 12.671875 -16.078125 14.015625 -16.078125 C 14.546875 -16.078125 15.066406 -16.015625 15.578125 -15.890625 C 16.097656 -15.765625 16.554688 -15.585938 16.953125 -15.359375 C 17.359375 -15.140625 17.628906 -14.90625 17.765625 -14.65625 L 17.765625 -9.015625 C 17.253906 -9.460938 16.539062 -9.863281 15.625 -10.21875 C 14.707031 -10.570312 13.742188 -10.75 12.734375 -10.75 C 11.722656 -10.75 10.804688 -10.617188 9.984375 -10.359375 C 9.171875 -10.097656 8.585938 -9.695312 8.234375 -9.15625 C 7.890625 -8.625 7.894531 -7.941406 8.25 -7.109375 C 8.945312 -6.242188 9.796875 -5.59375 10.796875 -5.15625 C 11.804688 -4.726562 12.878906 -4.515625 14.015625 -4.515625 C 15.117188 -4.515625 16.0625 -4.671875 16.84375 -4.984375 C 17.625 -5.296875 18.265625 -5.648438 18.765625 -6.046875 C 19.265625 -6.453125 19.628906 -6.8125 19.859375 -7.125 C 20.085938 -7.4375 20.203125 -7.59375 20.203125 -7.59375 C 20.203125 -7.59375 20.25 -7.441406 20.34375 -7.140625 C 20.4375 -6.847656 20.5625 -6.460938 20.71875 -5.984375 C 20.875 -5.515625 21.046875 -5 21.234375 -4.4375 C 21.429688 -3.875 21.640625 -3.328125 21.859375 -2.796875 C 20.878906 -1.710938 19.625 -0.910156 18.09375 -0.390625 C 16.5625 0.117188 14.890625 0.375 13.078125 0.375 Z M 13.078125 0.375 "/></g></g></g><g fill="#000000" fill-opacity="1"><g transform="translate(142.895442, 196.110294)"><g><path d="M 13.078125 0.375 C 11.222656 0.375 9.546875 0.046875 8.046875 -0.609375 C 6.554688 -1.273438 5.273438 -2.1875 4.203125 -3.34375 C 3.128906 -4.507812 2.304688 -5.859375 1.734375 -7.390625 C 1.171875 -8.921875 0.890625 -10.5625 0.890625 -12.3125 C 0.890625 -14.0625 1.171875 -15.695312 1.734375 -17.21875 C 2.304688 -18.75 3.128906 -20.097656 4.203125 -21.265625 C 5.273438 -22.429688 6.554688 -23.335938 8.046875 -23.984375 C 9.546875 -24.640625 11.222656 -24.96875 13.078125 -24.96875 C 14.890625 -24.96875 16.5625 -24.710938 18.09375 -24.203125 C 19.625 -23.703125 20.878906 -22.90625 21.859375 -21.8125 C 21.640625 -21.289062 21.429688 -20.75 21.234375 -20.1875 C 21.046875 -19.625 20.875 -19.101562 20.71875 -18.625 C 20.5625 -18.15625 20.4375 -17.769531 20.34375 -17.46875 C 20.25 -17.175781 20.203125 -17.03125 20.203125 -17.03125 C 20.203125 -17.03125 20.085938 -17.1875 19.859375 -17.5 C 19.628906 -17.8125 19.265625 -18.164062 18.765625 -18.5625 C 18.265625 -18.96875 17.625 -19.328125 16.84375 -19.640625 C 16.0625 -19.953125 15.117188 -20.109375 14.015625 -20.109375 C 12.703125 -20.109375 11.484375 -19.816406 10.359375 -19.234375 C 9.242188 -18.660156 8.34375 -17.796875 7.65625 -16.640625 C 6.96875 -15.484375 6.625 -14.03125 6.625 -12.28125 C 6.625 -11.53125 6.691406 -10.835938 6.828125 -10.203125 C 6.960938 -9.566406 7.160156 -8.984375 7.421875 -8.453125 C 7.328125 -9.878906 7.550781 -11.164062 8.09375 -12.3125 C 8.644531 -13.46875 9.429688 -14.382812 10.453125 -15.0625 C 11.484375 -15.738281 12.671875 -16.078125 14.015625 -16.078125 C 14.546875 -16.078125 15.066406 -16.015625 15.578125 -15.890625 C 16.097656 -15.765625 16.554688 -15.585938 16.953125 -15.359375 C 17.359375 -15.140625 17.628906 -14.90625 17.765625 -14.65625 L 17.765625 -9.015625 C 17.253906 -9.460938 16.539062 -9.863281 15.625 -10.21875 C 14.707031 -10.570312 13.742188 -10.75 12.734375 -10.75 C 11.722656 -10.75 10.804688 -10.617188 9.984375 -10.359375 C 9.171875 -10.097656 8.585938 -9.695312 8.234375 -9.15625 C 7.890625 -8.625 7.894531 -7.941406 8.25 -7.109375 C 8.945312 -6.242188 9.796875 -5.59375 10.796875 -5.15625 C 11.804688 -4.726562 12.878906 -4.515625 14.015625 -4.515625 C 15.117188 -4.515625 16.0625 -4.671875 16.84375 -4.984375 C 17.625 -5.296875 18.265625 -5.648438 18.765625 -6.046875 C 19.265625 -6.453125 19.628906 -6.8125 19.859375 -7.125 C 20.085938 -7.4375 20.203125 -7.59375 20.203125 -7.59375 C 20.203125 -7.59375 20.25 -7.441406 20.34375 -7.140625 C 20.4375 -6.847656 20.5625 -6.460938 20.71875 -5.984375 C 20.875 -5.515625 21.046875 -5 21.234375 -4.4375 C 21.429688 -3.875 21.640625 -3.328125 21.859375 -2.796875 C 20.878906 -1.710938 19.625 -0.910156 18.09375 -0.390625 C 16.5625 0.117188 14.890625 0.375 13.078125 0.375 Z M 13.078125 0.375 "/></g></g></g><g fill="#000000" fill-opacity="1"><g transform="translate(164.754285, 196.110294)"><g/></g></g><g fill="#000000" fill-opacity="1"><g transform="translate(172.397244, 196.110294)"><g><path d="M 0.515625 -24.59375 L 18.859375 -24.59375 L 18.859375 -18.328125 C 18.453125 -18.710938 17.976562 -19.003906 17.4375 -19.203125 C 16.90625 -19.410156 16.375 -19.550781 15.84375 -19.625 C 15.320312 -19.707031 14.847656 -19.75 14.421875 -19.75 L 12.515625 -19.75 L 12.515625 -3.15625 C 12.515625 -2.53125 12.585938 -1.910156 12.734375 -1.296875 C 12.890625 -0.679688 13.113281 -0.25 13.40625 0 L 5.890625 0 C 6.171875 -0.25 6.390625 -0.6875 6.546875 -1.3125 C 6.703125 -1.9375 6.78125 -2.5625 6.78125 -3.1875 L 6.78125 -19.75 L 4.9375 -19.75 C 4.53125 -19.75 4.0625 -19.707031 3.53125 -19.625 C 3 -19.550781 2.46875 -19.410156 1.9375 -19.203125 C 1.40625 -19.003906 0.929688 -18.710938 0.515625 -18.328125 Z M 0.515625 -24.59375 "/></g></g></g><g fill="#000000" fill-opacity="1"><g transform="translate(191.759399, 196.110294)"><g><path d="M 0.890625 -12.28125 C 0.890625 -14.03125 1.113281 -15.671875 1.5625 -17.203125 C 2.019531 -18.742188 2.707031 -20.097656 3.625 -21.265625 C 4.550781 -22.429688 5.742188 -23.335938 7.203125 -23.984375 C 8.671875 -24.640625 10.40625 -24.96875 12.40625 -24.96875 C 14.425781 -24.96875 16.160156 -24.640625 17.609375 -23.984375 C 19.066406 -23.335938 20.257812 -22.429688 21.1875 -21.265625 C 22.113281 -20.097656 22.800781 -18.742188 23.25 -17.203125 C 23.707031 -15.671875 23.9375 -14.03125 23.9375 -12.28125 C 23.9375 -10.53125 23.707031 -8.890625 23.25 -7.359375 C 22.800781 -5.835938 22.113281 -4.492188 21.1875 -3.328125 C 20.257812 -2.160156 19.066406 -1.25 17.609375 -0.59375 C 16.160156 0.0507812 14.425781 0.375 12.40625 0.375 C 10.40625 0.375 8.671875 0.0507812 7.203125 -0.59375 C 5.742188 -1.25 4.550781 -2.160156 3.625 -3.328125 C 2.707031 -4.492188 2.019531 -5.835938 1.5625 -7.359375 C 1.113281 -8.890625 0.890625 -10.53125 0.890625 -12.28125 Z M 6.625 -12.3125 C 6.625 -10.894531 6.820312 -9.597656 7.21875 -8.421875 C 7.625 -7.242188 8.25 -6.304688 9.09375 -5.609375 C 9.945312 -4.910156 11.046875 -4.5625 12.390625 -4.5625 C 13.742188 -4.5625 14.847656 -4.910156 15.703125 -5.609375 C 16.566406 -6.304688 17.195312 -7.242188 17.59375 -8.421875 C 18 -9.597656 18.203125 -10.894531 18.203125 -12.3125 C 18.203125 -13.738281 18 -15.035156 17.59375 -16.203125 C 17.195312 -17.378906 16.566406 -18.316406 15.703125 -19.015625 C 14.847656 -19.710938 13.742188 -20.0625 12.390625 -20.0625 C 11.046875 -20.0625 9.945312 -19.710938 9.09375 -19.015625 C 8.25 -18.316406 7.625 -17.378906 7.21875 -16.203125 C 6.820312 -15.035156 6.625 -13.738281 6.625 -12.3125 Z M 6.625 -12.3125 "/></g></g></g><g fill="#000000" fill-opacity="1"><g transform="translate(216.573518, 196.110294)"><g><path d="M 0.515625 0 C 0.796875 -0.25 1.015625 -0.6875 1.171875 -1.3125 C 1.328125 -1.9375 1.40625 -2.5625 1.40625 -3.1875 L 1.40625 -21.40625 C 1.40625 -22.050781 1.328125 -22.675781 1.171875 -23.28125 C 1.015625 -23.894531 0.796875 -24.332031 0.515625 -24.59375 L 9.609375 -24.59375 C 11.785156 -24.59375 13.632812 -24.203125 15.15625 -23.421875 C 16.6875 -22.648438 17.859375 -21.585938 18.671875 -20.234375 C 19.492188 -18.878906 19.90625 -17.328125 19.90625 -15.578125 C 19.90625 -14.316406 19.691406 -13.117188 19.265625 -11.984375 C 18.835938 -10.859375 18.238281 -9.863281 17.46875 -9 C 16.695312 -8.132812 15.773438 -7.445312 14.703125 -6.9375 C 13.628906 -6.4375 12.441406 -6.1875 11.140625 -6.1875 C 10.898438 -6.1875 10.660156 -6.21875 10.421875 -6.28125 C 10.179688 -6.351562 9.988281 -6.4375 9.84375 -6.53125 L 7.140625 -12.71875 L 7.140625 -3.15625 C 7.140625 -2.53125 7.210938 -1.910156 7.359375 -1.296875 C 7.515625 -0.679688 7.738281 -0.25 8.03125 0 Z M 10.046875 -19.75 L 7.140625 -19.75 L 7.140625 -13.6875 C 7.515625 -12.851562 7.953125 -12.207031 8.453125 -11.75 C 8.960938 -11.289062 9.671875 -11.0625 10.578125 -11.0625 C 11.410156 -11.0625 12.085938 -11.269531 12.609375 -11.6875 C 13.140625 -12.101562 13.53125 -12.65625 13.78125 -13.34375 C 14.039062 -14.03125 14.171875 -14.773438 14.171875 -15.578125 C 14.171875 -16.285156 14.019531 -16.957031 13.71875 -17.59375 C 13.425781 -18.226562 12.972656 -18.742188 12.359375 -19.140625 C 11.742188 -19.546875 10.972656 -19.75 10.046875 -19.75 Z M 10.046875 -19.75 "/></g></g></g><g fill="#000000" fill-opacity="1"><g transform="translate(236.980209, 196.110294)"><g><path d="M 0.515625 0 C 0.796875 -0.25 1.015625 -0.6875 1.171875 -1.3125 C 1.328125 -1.9375 1.40625 -2.5625 1.40625 -3.1875 L 1.40625 -21.40625 C 1.40625 -22.050781 1.328125 -22.675781 1.171875 -23.28125 C 1.015625 -23.894531 0.796875 -24.332031 0.515625 -24.59375 L 8.03125 -24.59375 C 7.738281 -24.332031 7.515625 -23.898438 7.359375 -23.296875 C 7.210938 -22.703125 7.140625 -22.082031 7.140625 -21.4375 L 7.140625 -3.15625 C 7.140625 -2.53125 7.210938 -1.910156 7.359375 -1.296875 C 7.515625 -0.679688 7.738281 -0.25 8.03125 0 Z M 0.515625 0 "/></g></g></g><g fill="#000000" fill-opacity="1"><g transform="translate(245.514846, 196.110294)"><g><path d="M 13.078125 0.375 C 11.222656 0.375 9.546875 0.046875 8.046875 -0.609375 C 6.554688 -1.273438 5.273438 -2.1875 4.203125 -3.34375 C 3.128906 -4.507812 2.304688 -5.859375 1.734375 -7.390625 C 1.171875 -8.921875 0.890625 -10.5625 0.890625 -12.3125 C 0.890625 -14.0625 1.171875 -15.695312 1.734375 -17.21875 C 2.304688 -18.75 3.128906 -20.097656 4.203125 -21.265625 C 5.273438 -22.429688 6.554688 -23.335938 8.046875 -23.984375 C 9.546875 -24.640625 11.222656 -24.96875 13.078125 -24.96875 C 14.890625 -24.96875 16.5625 -24.710938 18.09375 -24.203125 C 19.625 -23.703125 20.878906 -22.90625 21.859375 -21.8125 C 21.640625 -21.289062 21.429688 -20.75 21.234375 -20.1875 C 21.046875 -19.625 20.875 -19.101562 20.71875 -18.625 C 20.5625 -18.15625 20.4375 -17.769531 20.34375 -17.46875 C 20.25 -17.175781 20.203125 -17.03125 20.203125 -17.03125 C 20.203125 -17.03125 20.085938 -17.1875 19.859375 -17.5 C 19.628906 -17.8125 19.265625 -18.164062 18.765625 -18.5625 C 18.265625 -18.96875 17.625 -19.328125 16.84375 -19.640625 C 16.0625 -19.953125 15.117188 -20.109375 14.015625 -20.109375 C 12.703125 -20.109375 11.484375 -19.816406 10.359375 -19.234375 C 9.242188 -18.660156 8.34375 -17.796875 7.65625 -16.640625 C 6.96875 -15.484375 6.625 -14.03125 6.625 -12.28125 C 6.625 -10.550781 6.96875 -9.113281 7.65625 -7.96875 C 8.34375 -6.820312 9.242188 -5.957031 10.359375 -5.375 C 11.484375 -4.800781 12.703125 -4.515625 14.015625 -4.515625 C 15.117188 -4.515625 16.0625 -4.671875 16.84375 -4.984375 C 17.625 -5.296875 18.265625 -5.648438 18.765625 -6.046875 C 19.265625 -6.453125 19.628906 -6.8125 19.859375 -7.125 C 20.085938 -7.4375 20.203125 -7.59375 20.203125 -7.59375 C 20.203125 -7.59375 20.25 -7.441406 20.34375 -7.140625 C 20.4375 -6.847656 20.5625 -6.460938 20.71875 -5.984375 C 20.875 -5.515625 21.046875 -5 21.234375 -4.4375 C 21.429688 -3.875 21.640625 -3.328125 21.859375 -2.796875 C 20.878906 -1.710938 19.625 -0.910156 18.09375 -0.390625 C 16.5625 0.117188 14.890625 0.375 13.078125 0.375 Z M 13.078125 0.375 "/></g></g></g></svg>