<svg xmlns="http://www.w3.org/2000/svg" xmlns:xlink="http://www.w3.org/1999/xlink" width="453" zoomAndPan="magnify" viewBox="0 0 339.75 88.499997" height="118" preserveAspectRatio="xMidYMid meet" version="1.0"><defs><g/><clipPath id="10abc8081b"><path d="M 0.828125 2 L 63 2 L 63 88 L 0.828125 88 Z M 0.828125 2 " clip-rule="nonzero"/></clipPath></defs><g clip-path="url(#10abc8081b)"><path fill="#eabd04" d="M 62.027344 16.097656 C 60.152344 0.167969 35.894531 0 25.734375 7.527344 C 18.464844 12.90625 15.179688 19.917969 13.902344 23.476562 C 12.53125 22.402344 10.804688 21.773438 8.949219 21.773438 C 4.5 21.773438 0.863281 25.386719 0.863281 29.855469 C 0.863281 34.308594 4.480469 37.941406 8.949219 37.941406 C 12.140625 37.941406 14.921875 36.070312 16.21875 33.378906 C 16.257812 33.289062 16.3125 33.195312 16.351562 33.101562 C 16.609375 32.527344 16.792969 31.914062 16.90625 31.285156 C 18.574219 26.222656 23.621094 13.816406 34.097656 10.050781 C 47.617188 5.191406 60.855469 13.816406 53.457031 24.8125 C 47.820312 33.214844 38.882812 36.679688 34.929688 37.867188 C 33.761719 38.222656 32.949219 39.296875 32.910156 40.519531 L 32.910156 40.613281 C 32.910156 42.097656 34.058594 43.339844 35.542969 43.449219 C 40.347656 43.785156 50.25 45.378906 54.550781 52.554688 C 60.355469 62.21875 43.980469 68.300781 43.980469 68.300781 L 43.945312 68.542969 C 43.5 57.691406 37.824219 45.007812 16.554688 38.40625 C 16.554688 38.40625 7.632812 67.019531 38.660156 75.199219 L 39.921875 87.828125 C 39.921875 87.828125 42.980469 81.765625 43.777344 73.714844 C 46.113281 73.492188 55.886719 71.878906 60.949219 60.9375 C 66.996094 47.84375 46.875 39.480469 46.875 39.480469 C 46.875 39.480469 63.898438 32.230469 62.027344 16.097656 Z M 8.949219 32.640625 C 7.410156 32.640625 6.167969 31.394531 6.167969 29.855469 C 6.167969 28.316406 7.410156 27.074219 8.949219 27.074219 C 10.488281 27.074219 11.730469 28.316406 11.730469 29.855469 C 11.730469 31.394531 10.488281 32.640625 8.949219 32.640625 Z M 21.414062 45.433594 C 36.453125 50.738281 38.417969 68.28125 38.417969 68.28125 C 20.023438 64.515625 21.414062 45.433594 21.414062 45.433594 Z M 21.414062 45.433594 " fill-opacity="1" fill-rule="nonzero"/></g><g fill="#ffffff" fill-opacity="1"><g transform="translate(79.023202, 56.123401)"><g><path d="M 1.984375 -30.328125 C 1.984375 -31.242188 1.875 -32.128906 1.65625 -32.984375 C 1.4375 -33.835938 1.125 -34.441406 0.71875 -34.796875 L 17.703125 -34.796875 C 18.929688 -34.796875 20.132812 -34.601562 21.3125 -34.21875 C 22.488281 -33.832031 23.546875 -33.265625 24.484375 -32.515625 C 25.421875 -31.773438 26.164062 -30.867188 26.71875 -29.796875 C 27.269531 -28.734375 27.546875 -27.515625 27.546875 -26.140625 C 27.546875 -24.367188 27.054688 -22.800781 26.078125 -21.4375 C 25.109375 -20.082031 23.832031 -19.140625 22.25 -18.609375 C 23.039062 -18.609375 23.859375 -18.457031 24.703125 -18.15625 C 25.546875 -17.851562 26.332031 -17.363281 27.0625 -16.6875 C 27.800781 -16.019531 28.394531 -15.144531 28.84375 -14.0625 C 29.300781 -12.976562 29.53125 -11.679688 29.53125 -10.171875 C 29.53125 -8.410156 29.0625 -6.753906 28.125 -5.203125 C 27.1875 -3.660156 25.75 -2.40625 23.8125 -1.4375 C 21.882812 -0.476562 19.441406 0 16.484375 0 L 0.71875 0 C 1.125 -0.363281 1.4375 -0.976562 1.65625 -1.84375 C 1.875 -2.707031 1.984375 -3.582031 1.984375 -4.46875 Z M 16.296875 -15.078125 L 10.09375 -15.078125 L 10.09375 -6.78125 L 16.296875 -6.78125 C 18.078125 -6.78125 19.375 -7.175781 20.1875 -7.96875 C 21.007812 -8.757812 21.421875 -9.742188 21.421875 -10.921875 C 21.421875 -12.128906 21.007812 -13.125 20.1875 -13.90625 C 19.375 -14.6875 18.078125 -15.078125 16.296875 -15.078125 Z M 10.09375 -28.015625 L 10.09375 -21.53125 L 15.875 -21.53125 C 16.851562 -21.53125 17.671875 -21.847656 18.328125 -22.484375 C 18.992188 -23.117188 19.328125 -23.882812 19.328125 -24.78125 C 19.328125 -25.664062 18.992188 -26.425781 18.328125 -27.0625 C 17.671875 -27.695312 16.851562 -28.015625 15.875 -28.015625 Z M 10.09375 -28.015625 "/></g></g></g><g fill="#ffffff" fill-opacity="1"><g transform="translate(109.275082, 56.123401)"><g><path d="M 18.5 0.546875 C 15.875 0.546875 13.503906 0.078125 11.390625 -0.859375 C 9.273438 -1.796875 7.457031 -3.085938 5.9375 -4.734375 C 4.425781 -6.390625 3.269531 -8.296875 2.46875 -10.453125 C 1.664062 -12.617188 1.265625 -14.941406 1.265625 -17.421875 C 1.265625 -19.890625 1.664062 -22.207031 2.46875 -24.375 C 3.269531 -26.539062 4.425781 -28.445312 5.9375 -30.09375 C 7.457031 -31.738281 9.273438 -33.023438 11.390625 -33.953125 C 13.503906 -34.878906 15.875 -35.34375 18.5 -35.34375 C 21.070312 -35.34375 23.4375 -34.976562 25.59375 -34.25 C 27.757812 -33.53125 29.539062 -32.40625 30.9375 -30.875 C 30.625 -30.125 30.328125 -29.351562 30.046875 -28.5625 C 29.773438 -27.769531 29.53125 -27.035156 29.3125 -26.359375 C 29.101562 -25.691406 28.929688 -25.144531 28.796875 -24.71875 C 28.660156 -24.300781 28.59375 -24.09375 28.59375 -24.09375 C 28.59375 -24.09375 28.429688 -24.3125 28.109375 -24.75 C 27.785156 -25.195312 27.269531 -25.703125 26.5625 -26.265625 C 25.851562 -26.835938 24.941406 -27.34375 23.828125 -27.78125 C 22.722656 -28.226562 21.390625 -28.453125 19.828125 -28.453125 C 17.984375 -28.453125 16.265625 -28.039062 14.671875 -27.21875 C 13.085938 -26.40625 11.804688 -25.179688 10.828125 -23.546875 C 9.859375 -21.910156 9.375 -19.851562 9.375 -17.375 C 9.375 -16.320312 9.46875 -15.34375 9.65625 -14.4375 C 9.851562 -13.539062 10.132812 -12.71875 10.5 -11.96875 C 10.375 -13.988281 10.695312 -15.8125 11.46875 -17.4375 C 12.238281 -19.0625 13.347656 -20.351562 14.796875 -21.3125 C 16.253906 -22.269531 17.929688 -22.75 19.828125 -22.75 C 20.578125 -22.75 21.316406 -22.660156 22.046875 -22.484375 C 22.785156 -22.304688 23.4375 -22.0625 24 -21.75 C 24.5625 -21.4375 24.941406 -21.097656 25.140625 -20.734375 L 25.140625 -12.765625 C 24.410156 -13.390625 23.394531 -13.953125 22.09375 -14.453125 C 20.800781 -14.960938 19.445312 -15.21875 18.03125 -15.21875 C 16.59375 -15.21875 15.296875 -15.03125 14.140625 -14.65625 C 12.984375 -14.28125 12.15625 -13.710938 11.65625 -12.953125 C 11.164062 -12.203125 11.175781 -11.238281 11.6875 -10.0625 C 12.664062 -8.832031 13.863281 -7.910156 15.28125 -7.296875 C 16.707031 -6.691406 18.222656 -6.390625 19.828125 -6.390625 C 21.390625 -6.390625 22.722656 -6.609375 23.828125 -7.046875 C 24.941406 -7.492188 25.851562 -8 26.5625 -8.5625 C 27.269531 -9.125 27.785156 -9.628906 28.109375 -10.078125 C 28.429688 -10.523438 28.59375 -10.75 28.59375 -10.75 C 28.59375 -10.75 28.660156 -10.535156 28.796875 -10.109375 C 28.929688 -9.691406 29.101562 -9.144531 29.3125 -8.46875 C 29.53125 -7.800781 29.773438 -7.066406 30.046875 -6.265625 C 30.328125 -5.472656 30.625 -4.707031 30.9375 -3.96875 C 29.539062 -2.425781 27.757812 -1.285156 25.59375 -0.546875 C 23.4375 0.179688 21.070312 0.546875 18.5 0.546875 Z M 18.5 0.546875 "/></g></g></g><g fill="#ffffff" fill-opacity="1"><g transform="translate(140.212042, 56.123401)"><g><path d="M 18.5 0.546875 C 15.875 0.546875 13.503906 0.078125 11.390625 -0.859375 C 9.273438 -1.796875 7.457031 -3.085938 5.9375 -4.734375 C 4.425781 -6.390625 3.269531 -8.296875 2.46875 -10.453125 C 1.664062 -12.617188 1.265625 -14.941406 1.265625 -17.421875 C 1.265625 -19.890625 1.664062 -22.207031 2.46875 -24.375 C 3.269531 -26.539062 4.425781 -28.445312 5.9375 -30.09375 C 7.457031 -31.738281 9.273438 -33.023438 11.390625 -33.953125 C 13.503906 -34.878906 15.875 -35.34375 18.5 -35.34375 C 21.070312 -35.34375 23.4375 -34.976562 25.59375 -34.25 C 27.757812 -33.53125 29.539062 -32.40625 30.9375 -30.875 C 30.625 -30.125 30.328125 -29.351562 30.046875 -28.5625 C 29.773438 -27.769531 29.53125 -27.035156 29.3125 -26.359375 C 29.101562 -25.691406 28.929688 -25.144531 28.796875 -24.71875 C 28.660156 -24.300781 28.59375 -24.09375 28.59375 -24.09375 C 28.59375 -24.09375 28.429688 -24.3125 28.109375 -24.75 C 27.785156 -25.195312 27.269531 -25.703125 26.5625 -26.265625 C 25.851562 -26.835938 24.941406 -27.34375 23.828125 -27.78125 C 22.722656 -28.226562 21.390625 -28.453125 19.828125 -28.453125 C 17.984375 -28.453125 16.265625 -28.039062 14.671875 -27.21875 C 13.085938 -26.40625 11.804688 -25.179688 10.828125 -23.546875 C 9.859375 -21.910156 9.375 -19.851562 9.375 -17.375 C 9.375 -16.320312 9.46875 -15.34375 9.65625 -14.4375 C 9.851562 -13.539062 10.132812 -12.71875 10.5 -11.96875 C 10.375 -13.988281 10.695312 -15.8125 11.46875 -17.4375 C 12.238281 -19.0625 13.347656 -20.351562 14.796875 -21.3125 C 16.253906 -22.269531 17.929688 -22.75 19.828125 -22.75 C 20.578125 -22.75 21.316406 -22.660156 22.046875 -22.484375 C 22.785156 -22.304688 23.4375 -22.0625 24 -21.75 C 24.5625 -21.4375 24.941406 -21.097656 25.140625 -20.734375 L 25.140625 -12.765625 C 24.410156 -13.390625 23.394531 -13.953125 22.09375 -14.453125 C 20.800781 -14.960938 19.445312 -15.21875 18.03125 -15.21875 C 16.59375 -15.21875 15.296875 -15.03125 14.140625 -14.65625 C 12.984375 -14.28125 12.15625 -13.710938 11.65625 -12.953125 C 11.164062 -12.203125 11.175781 -11.238281 11.6875 -10.0625 C 12.664062 -8.832031 13.863281 -7.910156 15.28125 -7.296875 C 16.707031 -6.691406 18.222656 -6.390625 19.828125 -6.390625 C 21.390625 -6.390625 22.722656 -6.609375 23.828125 -7.046875 C 24.941406 -7.492188 25.851562 -8 26.5625 -8.5625 C 27.269531 -9.125 27.785156 -9.628906 28.109375 -10.078125 C 28.429688 -10.523438 28.59375 -10.75 28.59375 -10.75 C 28.59375 -10.75 28.660156 -10.535156 28.796875 -10.109375 C 28.929688 -9.691406 29.101562 -9.144531 29.3125 -8.46875 C 29.53125 -7.800781 29.773438 -7.066406 30.046875 -6.265625 C 30.328125 -5.472656 30.625 -4.707031 30.9375 -3.96875 C 29.539062 -2.425781 27.757812 -1.285156 25.59375 -0.546875 C 23.4375 0.179688 21.070312 0.546875 18.5 0.546875 Z M 18.5 0.546875 "/></g></g></g><g fill="#ffffff" fill-opacity="1"><g transform="translate(171.149001, 56.123401)"><g/></g></g><g fill="#ffffff" fill-opacity="1"><g transform="translate(181.96613, 56.123401)"><g><path d="M 0.71875 -34.796875 L 26.6875 -34.796875 L 26.6875 -25.921875 C 26.113281 -26.484375 25.445312 -26.90625 24.6875 -27.1875 C 23.925781 -27.476562 23.171875 -27.675781 22.421875 -27.78125 C 21.679688 -27.894531 21.007812 -27.953125 20.40625 -27.953125 L 17.703125 -27.953125 L 17.703125 -4.46875 C 17.703125 -3.582031 17.8125 -2.707031 18.03125 -1.84375 C 18.25 -0.976562 18.5625 -0.363281 18.96875 0 L 8.328125 0 C 8.734375 -0.363281 9.046875 -0.984375 9.265625 -1.859375 C 9.484375 -2.734375 9.59375 -3.613281 9.59375 -4.5 L 9.59375 -27.953125 L 7 -27.953125 C 6.414062 -27.953125 5.742188 -27.894531 4.984375 -27.78125 C 4.234375 -27.675781 3.484375 -27.476562 2.734375 -27.1875 C 1.992188 -26.90625 1.320312 -26.484375 0.71875 -25.921875 Z M 0.71875 -34.796875 "/></g></g></g><g fill="#ffffff" fill-opacity="1"><g transform="translate(209.369511, 56.123401)"><g><path d="M 1.265625 -17.375 C 1.265625 -19.851562 1.582031 -22.179688 2.21875 -24.359375 C 2.851562 -26.535156 3.828125 -28.445312 5.140625 -30.09375 C 6.453125 -31.738281 8.140625 -33.023438 10.203125 -33.953125 C 12.273438 -34.878906 14.726562 -35.34375 17.5625 -35.34375 C 20.425781 -35.34375 22.882812 -34.878906 24.9375 -33.953125 C 26.988281 -33.023438 28.671875 -31.738281 29.984375 -30.09375 C 31.296875 -28.445312 32.269531 -26.535156 32.90625 -24.359375 C 33.539062 -22.179688 33.859375 -19.851562 33.859375 -17.375 C 33.859375 -14.90625 33.539062 -12.585938 32.90625 -10.421875 C 32.269531 -8.253906 31.296875 -6.347656 29.984375 -4.703125 C 28.671875 -3.054688 26.988281 -1.769531 24.9375 -0.84375 C 22.882812 0.0820312 20.425781 0.546875 17.5625 0.546875 C 14.726562 0.546875 12.273438 0.0820312 10.203125 -0.84375 C 8.140625 -1.769531 6.453125 -3.054688 5.140625 -4.703125 C 3.828125 -6.347656 2.851562 -8.253906 2.21875 -10.421875 C 1.582031 -12.585938 1.265625 -14.90625 1.265625 -17.375 Z M 9.375 -17.421875 C 9.375 -15.421875 9.65625 -13.582031 10.21875 -11.90625 C 10.789062 -10.238281 11.675781 -8.910156 12.875 -7.921875 C 14.070312 -6.941406 15.625 -6.453125 17.53125 -6.453125 C 19.445312 -6.453125 21.007812 -6.941406 22.21875 -7.921875 C 23.4375 -8.910156 24.328125 -10.238281 24.890625 -11.90625 C 25.460938 -13.582031 25.75 -15.421875 25.75 -17.421875 C 25.75 -19.441406 25.460938 -21.28125 24.890625 -22.9375 C 24.328125 -24.59375 23.4375 -25.910156 22.21875 -26.890625 C 21.007812 -27.878906 19.445312 -28.375 17.53125 -28.375 C 15.625 -28.375 14.070312 -27.878906 12.875 -26.890625 C 11.675781 -25.910156 10.789062 -24.59375 10.21875 -22.9375 C 9.65625 -21.28125 9.375 -19.441406 9.375 -17.421875 Z M 9.375 -17.421875 "/></g></g></g><g fill="#ffffff" fill-opacity="1"><g transform="translate(244.489093, 56.123401)"><g><path d="M 0.71875 0 C 1.125 -0.363281 1.4375 -0.984375 1.65625 -1.859375 C 1.875 -2.734375 1.984375 -3.613281 1.984375 -4.5 L 1.984375 -30.296875 C 1.984375 -31.203125 1.875 -32.085938 1.65625 -32.953125 C 1.4375 -33.828125 1.125 -34.441406 0.71875 -34.796875 L 13.59375 -34.796875 C 16.675781 -34.796875 19.296875 -34.25 21.453125 -33.15625 C 23.617188 -32.0625 25.28125 -30.550781 26.4375 -28.625 C 27.59375 -26.707031 28.171875 -24.507812 28.171875 -22.03125 C 28.171875 -20.25 27.867188 -18.554688 27.265625 -16.953125 C 26.660156 -15.359375 25.8125 -13.945312 24.71875 -12.71875 C 23.625 -11.5 22.316406 -10.535156 20.796875 -9.828125 C 19.285156 -9.117188 17.609375 -8.765625 15.765625 -8.765625 C 15.421875 -8.765625 15.082031 -8.8125 14.75 -8.90625 C 14.414062 -9 14.140625 -9.109375 13.921875 -9.234375 L 10.09375 -18 L 10.09375 -4.46875 C 10.09375 -3.582031 10.203125 -2.707031 10.421875 -1.84375 C 10.640625 -0.976562 10.953125 -0.363281 11.359375 0 Z M 14.203125 -27.953125 L 10.09375 -27.953125 L 10.09375 -19.359375 C 10.625 -18.179688 11.25 -17.269531 11.96875 -16.625 C 12.6875 -15.976562 13.6875 -15.65625 14.96875 -15.65625 C 16.144531 -15.65625 17.101562 -15.945312 17.84375 -16.53125 C 18.59375 -17.125 19.144531 -17.90625 19.5 -18.875 C 19.863281 -19.851562 20.046875 -20.90625 20.046875 -22.03125 C 20.046875 -23.039062 19.832031 -23.992188 19.40625 -24.890625 C 18.988281 -25.796875 18.347656 -26.53125 17.484375 -27.09375 C 16.617188 -27.664062 15.523438 -27.953125 14.203125 -27.953125 Z M 14.203125 -27.953125 "/></g></g></g><g fill="#ffffff" fill-opacity="1"><g transform="translate(273.370812, 56.123401)"><g><path d="M 0.71875 0 C 1.125 -0.363281 1.4375 -0.984375 1.65625 -1.859375 C 1.875 -2.734375 1.984375 -3.613281 1.984375 -4.5 L 1.984375 -30.296875 C 1.984375 -31.203125 1.875 -32.085938 1.65625 -32.953125 C 1.4375 -33.828125 1.125 -34.441406 0.71875 -34.796875 L 11.359375 -34.796875 C 10.953125 -34.441406 10.640625 -33.835938 10.421875 -32.984375 C 10.203125 -32.128906 10.09375 -31.242188 10.09375 -30.328125 L 10.09375 -4.46875 C 10.09375 -3.582031 10.203125 -2.707031 10.421875 -1.84375 C 10.640625 -0.976562 10.953125 -0.363281 11.359375 0 Z M 0.71875 0 "/></g></g></g><g fill="#ffffff" fill-opacity="1"><g transform="translate(285.449938, 56.123401)"><g><path d="M 18.5 0.546875 C 15.875 0.546875 13.503906 0.078125 11.390625 -0.859375 C 9.273438 -1.796875 7.457031 -3.085938 5.9375 -4.734375 C 4.425781 -6.390625 3.269531 -8.296875 2.46875 -10.453125 C 1.664062 -12.617188 1.265625 -14.941406 1.265625 -17.421875 C 1.265625 -19.890625 1.664062 -22.207031 2.46875 -24.375 C 3.269531 -26.539062 4.425781 -28.445312 5.9375 -30.09375 C 7.457031 -31.738281 9.273438 -33.023438 11.390625 -33.953125 C 13.503906 -34.878906 15.875 -35.34375 18.5 -35.34375 C 21.070312 -35.34375 23.4375 -34.976562 25.59375 -34.25 C 27.757812 -33.53125 29.539062 -32.40625 30.9375 -30.875 C 30.625 -30.125 30.328125 -29.351562 30.046875 -28.5625 C 29.773438 -27.769531 29.53125 -27.035156 29.3125 -26.359375 C 29.101562 -25.691406 28.929688 -25.144531 28.796875 -24.71875 C 28.660156 -24.300781 28.59375 -24.09375 28.59375 -24.09375 C 28.59375 -24.09375 28.429688 -24.3125 28.109375 -24.75 C 27.785156 -25.195312 27.269531 -25.703125 26.5625 -26.265625 C 25.851562 -26.835938 24.941406 -27.34375 23.828125 -27.78125 C 22.722656 -28.226562 21.390625 -28.453125 19.828125 -28.453125 C 17.984375 -28.453125 16.265625 -28.039062 14.671875 -27.21875 C 13.085938 -26.40625 11.804688 -25.179688 10.828125 -23.546875 C 9.859375 -21.910156 9.375 -19.851562 9.375 -17.375 C 9.375 -14.925781 9.859375 -12.890625 10.828125 -11.265625 C 11.804688 -9.640625 13.085938 -8.421875 14.671875 -7.609375 C 16.265625 -6.796875 17.984375 -6.390625 19.828125 -6.390625 C 21.390625 -6.390625 22.722656 -6.609375 23.828125 -7.046875 C 24.941406 -7.492188 25.851562 -8 26.5625 -8.5625 C 27.269531 -9.125 27.785156 -9.628906 28.109375 -10.078125 C 28.429688 -10.523438 28.59375 -10.75 28.59375 -10.75 C 28.59375 -10.75 28.660156 -10.535156 28.796875 -10.109375 C 28.929688 -9.691406 29.101562 -9.144531 29.3125 -8.46875 C 29.53125 -7.800781 29.773438 -7.066406 30.046875 -6.265625 C 30.328125 -5.472656 30.625 -4.707031 30.9375 -3.96875 C 29.539062 -2.425781 27.757812 -1.285156 25.59375 -0.546875 C 23.4375 0.179688 21.070312 0.546875 18.5 0.546875 Z M 18.5 0.546875 "/></g></g></g></svg>